# xmcd CD database file
#
# Track frame offsets:
#	150
#	4535
#	32257
#	52657
#	72897
#	94347
#	115637
#	141475
#	158865
#	181567
#	202360
#	222025
#	242647
#	266327
#	288000
#
# Disc length: 4207 seconds
#
# Revision: 0
# Processed by: cddbd v1.5PL3 Copyright (c) Steve Scherf et al.
# Submitted via: CDex 1.51
#
DISCID=c2106d0f
DTITLE=Dream - Process
DYEAR=1900
DGENRE=JPop
TTITLE0=Prologue
TTITLE1=Yourself
TTITLE2=『パズル』
TTITLE3=solve
TTITLE4=New Days
TTITLE5=destine
TTITLE6=Precious Heart
TTITLE7=Our Time
TTITLE8=｢NeverMore｣
TTITLE9=SUBPAIN
TTITLE10=Answer
TTITLE11=願い
TTITLE12=Get Over
TTITLE13=Don't forget memory
TTITLE14=STAY 〜now I'm here〜 brilliant version
EXTD=
EXTT0=
EXTT1=
EXTT2=
EXTT3=
EXTT4=
EXTT5=
EXTT6=
EXTT7=
EXTT8=
EXTT9=
EXTT10=
EXTT11=
EXTT12=
EXTT13=
EXTT14=
PLAYORDER=
